<mxfile host="app.diagrams.net" modified="2021-11-08T13:34:40.615Z" agent="5.0 (Windows NT 10.0; Win64; x64) AppleWebKit/537.36 (KHTML, like Gecko) Chrome/95.0.4638.69 Safari/537.36" etag="kLt9nDWv3yecmZUtGNDD" version="15.7.0" type="github">
  <diagram id="MM519CpI-NArnVsfjC_c" name="Process Schedule">
    <mxGraphModel dx="2863" dy="671" grid="1" gridSize="10" guides="1" tooltips="1" connect="1" arrows="1" fold="1" page="1" pageScale="1" pageWidth="1654" pageHeight="1169" math="0" shadow="0">
      <root>
        <mxCell id="0" />
        <mxCell id="1" parent="0" />
        <mxCell id="PBCcbIg4CaZadZTyqdUz-11" value="" style="endArrow=none;dashed=1;html=1;shadow=0;strokeColor=default;exitX=0.494;exitY=-0.133;exitDx=0;exitDy=0;exitPerimeter=0;" parent="1" edge="1">
          <mxGeometry width="50" height="50" relative="1" as="geometry">
            <mxPoint x="199.70000000000005" y="799.01" as="sourcePoint" />
            <mxPoint x="200" y="160" as="targetPoint" />
          </mxGeometry>
        </mxCell>
        <mxCell id="PBCcbIg4CaZadZTyqdUz-42" value="" style="endArrow=none;dashed=1;html=1;shadow=0;strokeColor=default;exitX=0.494;exitY=-0.133;exitDx=0;exitDy=0;exitPerimeter=0;" parent="1" edge="1">
          <mxGeometry width="50" height="50" relative="1" as="geometry">
            <mxPoint x="439.6600000000001" y="798.51" as="sourcePoint" />
            <mxPoint x="439.96000000000004" y="159.5" as="targetPoint" />
          </mxGeometry>
        </mxCell>
        <mxCell id="PBCcbIg4CaZadZTyqdUz-43" value="" style="endArrow=none;dashed=1;html=1;shadow=0;strokeColor=default;exitX=0.494;exitY=-0.133;exitDx=0;exitDy=0;exitPerimeter=0;" parent="1" edge="1">
          <mxGeometry width="50" height="50" relative="1" as="geometry">
            <mxPoint x="679" y="799" as="sourcePoint" />
            <mxPoint x="679.3" y="159.9899999999999" as="targetPoint" />
          </mxGeometry>
        </mxCell>
        <mxCell id="PBCcbIg4CaZadZTyqdUz-44" value="" style="endArrow=none;dashed=1;html=1;shadow=0;strokeColor=default;exitX=0.494;exitY=-0.133;exitDx=0;exitDy=0;exitPerimeter=0;" parent="1" edge="1">
          <mxGeometry width="50" height="50" relative="1" as="geometry">
            <mxPoint x="918.96" y="798.5" as="sourcePoint" />
            <mxPoint x="919.26" y="159.49" as="targetPoint" />
          </mxGeometry>
        </mxCell>
        <mxCell id="PBCcbIg4CaZadZTyqdUz-2" value="" style="shape=link;html=1;strokeColor=default;rounded=1;sketch=0;shadow=0;" parent="1" edge="1">
          <mxGeometry width="100" relative="1" as="geometry">
            <mxPoint x="199" y="803" as="sourcePoint" />
            <mxPoint x="1219" y="803" as="targetPoint" />
          </mxGeometry>
        </mxCell>
        <mxCell id="PBCcbIg4CaZadZTyqdUz-4" value="|&lt;br&gt;12 am" style="text;html=1;align=center;verticalAlign=middle;resizable=0;points=[];autosize=1;strokeColor=none;fillColor=none;" parent="1" vertex="1">
          <mxGeometry x="174" y="797" width="50" height="30" as="geometry" />
        </mxCell>
        <mxCell id="PBCcbIg4CaZadZTyqdUz-5" value="|&lt;br&gt;6" style="text;html=1;align=center;verticalAlign=middle;resizable=0;points=[];autosize=1;strokeColor=none;fillColor=none;" parent="1" vertex="1">
          <mxGeometry x="429" y="797" width="20" height="30" as="geometry" />
        </mxCell>
        <mxCell id="PBCcbIg4CaZadZTyqdUz-6" value="|&lt;br&gt;12" style="text;html=1;align=center;verticalAlign=middle;resizable=0;points=[];autosize=1;strokeColor=none;fillColor=none;" parent="1" vertex="1">
          <mxGeometry x="664" y="797" width="30" height="30" as="geometry" />
        </mxCell>
        <mxCell id="PBCcbIg4CaZadZTyqdUz-7" value="|&lt;br&gt;18" style="text;html=1;align=center;verticalAlign=middle;resizable=0;points=[];autosize=1;strokeColor=none;fillColor=none;" parent="1" vertex="1">
          <mxGeometry x="904" y="797" width="30" height="30" as="geometry" />
        </mxCell>
        <mxCell id="PBCcbIg4CaZadZTyqdUz-8" value="|&lt;br&gt;12 am" style="text;html=1;align=center;verticalAlign=middle;resizable=0;points=[];autosize=1;strokeColor=none;fillColor=none;" parent="1" vertex="1">
          <mxGeometry x="1134" y="796" width="50" height="30" as="geometry" />
        </mxCell>
        <mxCell id="PBCcbIg4CaZadZTyqdUz-9" value="Time in CET" style="text;html=1;align=center;verticalAlign=middle;resizable=0;points=[];autosize=1;strokeColor=none;fillColor=none;" parent="1" vertex="1">
          <mxGeometry x="1213" y="793" width="80" height="20" as="geometry" />
        </mxCell>
        <mxCell id="PBCcbIg4CaZadZTyqdUz-16" value="" style="rounded=1;html=1;strokeColor=#9673a6;fillColor=#e1d5e7;verticalAlign=bottom;whiteSpace=wrap;labelPosition=center;verticalLabelPosition=top;align=center;" parent="1" vertex="1">
          <mxGeometry x="565" y="320" width="10" height="80" as="geometry" />
        </mxCell>
        <mxCell id="PBCcbIg4CaZadZTyqdUz-18" value="" style="rounded=1;whiteSpace=wrap;html=1;strokeColor=#9673a6;fillColor=#e1d5e7;" parent="1" vertex="1">
          <mxGeometry x="683" y="320" width="10" height="80" as="geometry" />
        </mxCell>
        <mxCell id="PBCcbIg4CaZadZTyqdUz-19" value="" style="rounded=1;whiteSpace=wrap;html=1;strokeColor=#9673a6;fillColor=#e1d5e7;" parent="1" vertex="1">
          <mxGeometry x="803" y="320" width="10" height="80" as="geometry" />
        </mxCell>
        <mxCell id="PBCcbIg4CaZadZTyqdUz-20" value="" style="rounded=1;whiteSpace=wrap;html=1;strokeColor=#6c8ebf;fillColor=#dae8fc;" parent="1" vertex="1">
          <mxGeometry x="480" y="200" width="10" height="80" as="geometry" />
        </mxCell>
        <mxCell id="PBCcbIg4CaZadZTyqdUz-21" value="" style="rounded=1;whiteSpace=wrap;html=1;strokeColor=#666666;fillColor=#f5f5f5;fontColor=#333333;" parent="1" vertex="1">
          <mxGeometry x="520" y="200" width="10" height="80" as="geometry" />
        </mxCell>
        <mxCell id="PBCcbIg4CaZadZTyqdUz-22" value="" style="rounded=1;whiteSpace=wrap;html=1;strokeColor=#666666;fillColor=#f5f5f5;fontColor=#333333;" parent="1" vertex="1">
          <mxGeometry x="560" y="200" width="10" height="80" as="geometry" />
        </mxCell>
        <mxCell id="PBCcbIg4CaZadZTyqdUz-23" value="" style="rounded=1;whiteSpace=wrap;html=1;strokeColor=#6c8ebf;fillColor=#dae8fc;" parent="1" vertex="1">
          <mxGeometry x="600" y="200" width="10" height="80" as="geometry" />
        </mxCell>
        <mxCell id="PBCcbIg4CaZadZTyqdUz-24" value="" style="rounded=1;whiteSpace=wrap;html=1;strokeColor=#666666;fillColor=#f5f5f5;fontColor=#333333;" parent="1" vertex="1">
          <mxGeometry x="640" y="200" width="10" height="80" as="geometry" />
        </mxCell>
        <mxCell id="PBCcbIg4CaZadZTyqdUz-25" value="" style="rounded=1;whiteSpace=wrap;html=1;strokeColor=#6c8ebf;fillColor=#dae8fc;" parent="1" vertex="1">
          <mxGeometry x="680" y="200" width="10" height="80" as="geometry" />
        </mxCell>
        <mxCell id="PBCcbIg4CaZadZTyqdUz-26" value="" style="rounded=1;whiteSpace=wrap;html=1;strokeColor=#666666;fillColor=#f5f5f5;fontColor=#333333;" parent="1" vertex="1">
          <mxGeometry x="720" y="200" width="10" height="80" as="geometry" />
        </mxCell>
        <mxCell id="PBCcbIg4CaZadZTyqdUz-27" value="" style="rounded=1;whiteSpace=wrap;html=1;strokeColor=#6c8ebf;fillColor=#dae8fc;" parent="1" vertex="1">
          <mxGeometry x="760" y="200" width="10" height="80" as="geometry" />
        </mxCell>
        <mxCell id="PBCcbIg4CaZadZTyqdUz-28" value="" style="rounded=1;whiteSpace=wrap;html=1;strokeColor=#666666;fillColor=#f5f5f5;fontColor=#333333;" parent="1" vertex="1">
          <mxGeometry x="800" y="200" width="10" height="80" as="geometry" />
        </mxCell>
        <mxCell id="PBCcbIg4CaZadZTyqdUz-29" value="" style="rounded=1;whiteSpace=wrap;html=1;strokeColor=#666666;fillColor=#f5f5f5;fontColor=#333333;" parent="1" vertex="1">
          <mxGeometry x="840" y="200" width="10" height="80" as="geometry" />
        </mxCell>
        <mxCell id="PBCcbIg4CaZadZTyqdUz-30" value="" style="rounded=1;whiteSpace=wrap;html=1;strokeColor=#666666;fillColor=#f5f5f5;fontColor=#333333;" parent="1" vertex="1">
          <mxGeometry x="880" y="200" width="10" height="80" as="geometry" />
        </mxCell>
        <mxCell id="PBCcbIg4CaZadZTyqdUz-33" value="Snowflake&lt;br&gt;(Execution &amp;lt; Unknown)" style="text;html=1;align=right;verticalAlign=middle;resizable=0;points=[];autosize=1;strokeColor=none;fillColor=none;" parent="1" vertex="1">
          <mxGeometry x="20" y="345" width="140" height="30" as="geometry" />
        </mxCell>
        <mxCell id="PBCcbIg4CaZadZTyqdUz-34" value="Boomi&lt;br&gt;(Execution &amp;lt; 15 minutes)" style="text;html=1;align=right;verticalAlign=middle;resizable=0;points=[];autosize=1;strokeColor=none;fillColor=none;" parent="1" vertex="1">
          <mxGeometry x="10" y="225" width="150" height="30" as="geometry" />
        </mxCell>
        <mxCell id="PBCcbIg4CaZadZTyqdUz-35" value="IMpact NUT - BGD Extract&lt;br&gt;(Execution &amp;lt; 5 minutes)" style="text;html=1;align=right;verticalAlign=middle;resizable=0;points=[];autosize=1;strokeColor=none;fillColor=none;" parent="1" vertex="1">
          <mxGeometry y="470" width="160" height="30" as="geometry" />
        </mxCell>
        <mxCell id="PBCcbIg4CaZadZTyqdUz-45" value="" style="endArrow=none;dashed=1;html=1;shadow=0;strokeColor=default;exitX=0.494;exitY=-0.133;exitDx=0;exitDy=0;exitPerimeter=0;" parent="1" edge="1">
          <mxGeometry width="50" height="50" relative="1" as="geometry">
            <mxPoint x="1159.85" y="799" as="sourcePoint" />
            <mxPoint x="1160.15" y="159.99" as="targetPoint" />
          </mxGeometry>
        </mxCell>
        <mxCell id="PBCcbIg4CaZadZTyqdUz-46" value="" style="rounded=1;whiteSpace=wrap;html=1;strokeColor=#666666;fillColor=#f5f5f5;fontColor=#333333;" parent="1" vertex="1">
          <mxGeometry x="609" y="440" width="10" height="80" as="geometry" />
        </mxCell>
        <mxCell id="PBCcbIg4CaZadZTyqdUz-47" value="" style="rounded=1;whiteSpace=wrap;html=1;strokeColor=#666666;fillColor=#f5f5f5;fontColor=#333333;" parent="1" vertex="1">
          <mxGeometry x="649" y="440" width="10" height="80" as="geometry" />
        </mxCell>
        <mxCell id="PBCcbIg4CaZadZTyqdUz-48" value="" style="rounded=1;whiteSpace=wrap;html=1;strokeColor=#666666;fillColor=#f5f5f5;fontColor=#333333;" parent="1" vertex="1">
          <mxGeometry x="689" y="440" width="10" height="80" as="geometry" />
        </mxCell>
        <mxCell id="PBCcbIg4CaZadZTyqdUz-49" value="" style="rounded=1;whiteSpace=wrap;html=1;strokeColor=#666666;fillColor=#f5f5f5;fontColor=#333333;" parent="1" vertex="1">
          <mxGeometry x="569" y="440" width="10" height="80" as="geometry" />
        </mxCell>
        <mxCell id="PBCcbIg4CaZadZTyqdUz-50" value="" style="rounded=1;whiteSpace=wrap;html=1;strokeColor=#666666;fillColor=#f5f5f5;fontColor=#333333;" parent="1" vertex="1">
          <mxGeometry x="530" y="440" width="10" height="80" as="geometry" />
        </mxCell>
        <mxCell id="PBCcbIg4CaZadZTyqdUz-51" value="" style="rounded=1;whiteSpace=wrap;html=1;strokeColor=#666666;fillColor=#f5f5f5;fontColor=#333333;" parent="1" vertex="1">
          <mxGeometry x="409" y="440" width="10" height="80" as="geometry" />
        </mxCell>
        <mxCell id="PBCcbIg4CaZadZTyqdUz-52" value="" style="rounded=1;whiteSpace=wrap;html=1;strokeColor=#666666;fillColor=#f5f5f5;fontColor=#333333;" parent="1" vertex="1">
          <mxGeometry x="449" y="440" width="10" height="80" as="geometry" />
        </mxCell>
        <mxCell id="PBCcbIg4CaZadZTyqdUz-53" value="" style="rounded=1;whiteSpace=wrap;html=1;strokeColor=#666666;fillColor=#f5f5f5;fontColor=#333333;" parent="1" vertex="1">
          <mxGeometry x="489" y="440" width="10" height="80" as="geometry" />
        </mxCell>
        <mxCell id="PBCcbIg4CaZadZTyqdUz-54" value="" style="rounded=1;whiteSpace=wrap;html=1;strokeColor=#666666;fillColor=#f5f5f5;fontColor=#333333;" parent="1" vertex="1">
          <mxGeometry x="369" y="440" width="10" height="80" as="geometry" />
        </mxCell>
        <mxCell id="PBCcbIg4CaZadZTyqdUz-55" value="" style="rounded=1;whiteSpace=wrap;html=1;strokeColor=#666666;fillColor=#f5f5f5;fontColor=#333333;" parent="1" vertex="1">
          <mxGeometry x="330" y="440" width="10" height="80" as="geometry" />
        </mxCell>
        <mxCell id="PBCcbIg4CaZadZTyqdUz-56" value="" style="rounded=1;whiteSpace=wrap;html=1;strokeColor=#666666;fillColor=#f5f5f5;fontColor=#333333;" parent="1" vertex="1">
          <mxGeometry x="289" y="440" width="10" height="80" as="geometry" />
        </mxCell>
        <mxCell id="PBCcbIg4CaZadZTyqdUz-57" value="" style="rounded=1;whiteSpace=wrap;html=1;strokeColor=#666666;fillColor=#f5f5f5;fontColor=#333333;" parent="1" vertex="1">
          <mxGeometry x="250" y="440" width="10" height="80" as="geometry" />
        </mxCell>
        <mxCell id="PBCcbIg4CaZadZTyqdUz-58" value="" style="rounded=1;whiteSpace=wrap;html=1;strokeColor=#666666;fillColor=#f5f5f5;fontColor=#333333;" parent="1" vertex="1">
          <mxGeometry x="209" y="440" width="10" height="80" as="geometry" />
        </mxCell>
        <mxCell id="PBCcbIg4CaZadZTyqdUz-59" value="" style="rounded=1;whiteSpace=wrap;html=1;strokeColor=#666666;fillColor=#f5f5f5;fontColor=#333333;" parent="1" vertex="1">
          <mxGeometry x="1129" y="440" width="10" height="80" as="geometry" />
        </mxCell>
        <mxCell id="PBCcbIg4CaZadZTyqdUz-62" value="" style="rounded=1;whiteSpace=wrap;html=1;strokeColor=#666666;fillColor=#f5f5f5;fontColor=#333333;" parent="1" vertex="1">
          <mxGeometry x="1089" y="440" width="10" height="80" as="geometry" />
        </mxCell>
        <mxCell id="PBCcbIg4CaZadZTyqdUz-63" value="" style="rounded=1;whiteSpace=wrap;html=1;strokeColor=#666666;fillColor=#f5f5f5;fontColor=#333333;" parent="1" vertex="1">
          <mxGeometry x="968" y="440" width="10" height="80" as="geometry" />
        </mxCell>
        <mxCell id="PBCcbIg4CaZadZTyqdUz-64" value="" style="rounded=1;whiteSpace=wrap;html=1;strokeColor=#666666;fillColor=#f5f5f5;fontColor=#333333;" parent="1" vertex="1">
          <mxGeometry x="1008" y="440" width="10" height="80" as="geometry" />
        </mxCell>
        <mxCell id="PBCcbIg4CaZadZTyqdUz-65" value="" style="rounded=1;whiteSpace=wrap;html=1;strokeColor=#666666;fillColor=#f5f5f5;fontColor=#333333;" parent="1" vertex="1">
          <mxGeometry x="1048" y="440" width="10" height="80" as="geometry" />
        </mxCell>
        <mxCell id="PBCcbIg4CaZadZTyqdUz-66" value="" style="rounded=1;whiteSpace=wrap;html=1;strokeColor=#666666;fillColor=#f5f5f5;fontColor=#333333;" parent="1" vertex="1">
          <mxGeometry x="928" y="440" width="10" height="80" as="geometry" />
        </mxCell>
        <mxCell id="PBCcbIg4CaZadZTyqdUz-67" value="" style="rounded=1;whiteSpace=wrap;html=1;strokeColor=#666666;fillColor=#f5f5f5;fontColor=#333333;" parent="1" vertex="1">
          <mxGeometry x="889" y="440" width="10" height="80" as="geometry" />
        </mxCell>
        <mxCell id="PBCcbIg4CaZadZTyqdUz-68" value="" style="rounded=1;whiteSpace=wrap;html=1;strokeColor=#666666;fillColor=#f5f5f5;fontColor=#333333;" parent="1" vertex="1">
          <mxGeometry x="848" y="440" width="10" height="80" as="geometry" />
        </mxCell>
        <mxCell id="PBCcbIg4CaZadZTyqdUz-69" value="" style="rounded=1;whiteSpace=wrap;html=1;strokeColor=#666666;fillColor=#f5f5f5;fontColor=#333333;" parent="1" vertex="1">
          <mxGeometry x="809" y="440" width="10" height="80" as="geometry" />
        </mxCell>
        <mxCell id="PBCcbIg4CaZadZTyqdUz-70" value="" style="rounded=1;whiteSpace=wrap;html=1;strokeColor=#666666;fillColor=#f5f5f5;fontColor=#333333;" parent="1" vertex="1">
          <mxGeometry x="768" y="440" width="10" height="80" as="geometry" />
        </mxCell>
        <mxCell id="PBCcbIg4CaZadZTyqdUz-71" value="" style="rounded=1;whiteSpace=wrap;html=1;strokeColor=#666666;fillColor=#f5f5f5;fontColor=#333333;" parent="1" vertex="1">
          <mxGeometry x="729" y="440" width="10" height="80" as="geometry" />
        </mxCell>
        <mxCell id="PBCcbIg4CaZadZTyqdUz-72" value="Impact NUT - BGD Transform&lt;br&gt;(Execution &amp;lt; 1 minute)" style="text;html=1;align=right;verticalAlign=middle;resizable=0;points=[];autosize=1;strokeColor=none;fillColor=none;" parent="1" vertex="1">
          <mxGeometry x="-10" y="590" width="170" height="30" as="geometry" />
        </mxCell>
        <mxCell id="PBCcbIg4CaZadZTyqdUz-73" value="" style="rounded=1;whiteSpace=wrap;html=1;strokeColor=#666666;fillColor=#f5f5f5;fontColor=#333333;" parent="1" vertex="1">
          <mxGeometry x="653" y="560" width="10" height="80" as="geometry" />
        </mxCell>
        <mxCell id="PBCcbIg4CaZadZTyqdUz-74" value="" style="rounded=1;whiteSpace=wrap;html=1;strokeColor=#d79b00;fillColor=#ffe6cc;" parent="1" vertex="1">
          <mxGeometry x="693" y="560" width="10" height="80" as="geometry" />
        </mxCell>
        <mxCell id="PBCcbIg4CaZadZTyqdUz-75" value="" style="rounded=1;whiteSpace=wrap;html=1;strokeColor=#666666;fillColor=#f5f5f5;fontColor=#333333;" parent="1" vertex="1">
          <mxGeometry x="733" y="560" width="10" height="80" as="geometry" />
        </mxCell>
        <mxCell id="PBCcbIg4CaZadZTyqdUz-76" value="" style="rounded=1;whiteSpace=wrap;html=1;strokeColor=#d79b00;fillColor=#ffe6cc;" parent="1" vertex="1">
          <mxGeometry x="613" y="560" width="10" height="80" as="geometry" />
        </mxCell>
        <mxCell id="PBCcbIg4CaZadZTyqdUz-77" value="" style="rounded=1;whiteSpace=wrap;html=1;strokeColor=#666666;fillColor=#f5f5f5;fontColor=#333333;" parent="1" vertex="1">
          <mxGeometry x="574" y="560" width="10" height="80" as="geometry" />
        </mxCell>
        <mxCell id="PBCcbIg4CaZadZTyqdUz-78" value="" style="rounded=1;whiteSpace=wrap;html=1;strokeColor=#666666;fillColor=#f5f5f5;fontColor=#333333;" parent="1" vertex="1">
          <mxGeometry x="453" y="560" width="10" height="80" as="geometry" />
        </mxCell>
        <mxCell id="PBCcbIg4CaZadZTyqdUz-79" value="" style="rounded=1;whiteSpace=wrap;html=1;strokeColor=#d79b00;fillColor=#ffe6cc;" parent="1" vertex="1">
          <mxGeometry x="493" y="560" width="10" height="80" as="geometry" />
        </mxCell>
        <mxCell id="PBCcbIg4CaZadZTyqdUz-80" value="" style="rounded=1;whiteSpace=wrap;html=1;strokeColor=#666666;fillColor=#f5f5f5;fontColor=#333333;" parent="1" vertex="1">
          <mxGeometry x="533" y="560" width="10" height="80" as="geometry" />
        </mxCell>
        <mxCell id="PBCcbIg4CaZadZTyqdUz-81" value="" style="rounded=1;whiteSpace=wrap;html=1;strokeColor=#666666;fillColor=#f5f5f5;fontColor=#333333;" parent="1" vertex="1">
          <mxGeometry x="413" y="560" width="10" height="80" as="geometry" />
        </mxCell>
        <mxCell id="PBCcbIg4CaZadZTyqdUz-82" value="" style="rounded=1;whiteSpace=wrap;html=1;strokeColor=#666666;fillColor=#f5f5f5;fontColor=#333333;" parent="1" vertex="1">
          <mxGeometry x="374" y="560" width="10" height="80" as="geometry" />
        </mxCell>
        <mxCell id="PBCcbIg4CaZadZTyqdUz-83" value="" style="rounded=1;whiteSpace=wrap;html=1;strokeColor=#666666;fillColor=#f5f5f5;fontColor=#333333;" parent="1" vertex="1">
          <mxGeometry x="333" y="560" width="10" height="80" as="geometry" />
        </mxCell>
        <mxCell id="PBCcbIg4CaZadZTyqdUz-84" value="" style="rounded=1;whiteSpace=wrap;html=1;strokeColor=#666666;fillColor=#f5f5f5;fontColor=#333333;" parent="1" vertex="1">
          <mxGeometry x="294" y="560" width="10" height="80" as="geometry" />
        </mxCell>
        <mxCell id="PBCcbIg4CaZadZTyqdUz-85" value="" style="rounded=1;whiteSpace=wrap;html=1;strokeColor=#666666;fillColor=#f5f5f5;fontColor=#333333;" parent="1" vertex="1">
          <mxGeometry x="253" y="560" width="10" height="80" as="geometry" />
        </mxCell>
        <mxCell id="PBCcbIg4CaZadZTyqdUz-86" value="" style="rounded=1;whiteSpace=wrap;html=1;strokeColor=#666666;fillColor=#f5f5f5;fontColor=#333333;" parent="1" vertex="1">
          <mxGeometry x="214" y="560" width="10" height="80" as="geometry" />
        </mxCell>
        <mxCell id="PBCcbIg4CaZadZTyqdUz-87" value="" style="rounded=1;whiteSpace=wrap;html=1;strokeColor=#666666;fillColor=#f5f5f5;fontColor=#333333;" parent="1" vertex="1">
          <mxGeometry x="1133" y="560" width="10" height="80" as="geometry" />
        </mxCell>
        <mxCell id="PBCcbIg4CaZadZTyqdUz-88" value="" style="rounded=1;whiteSpace=wrap;html=1;strokeColor=#666666;fillColor=#f5f5f5;fontColor=#333333;" parent="1" vertex="1">
          <mxGeometry x="1012" y="560" width="10" height="80" as="geometry" />
        </mxCell>
        <mxCell id="PBCcbIg4CaZadZTyqdUz-89" value="" style="rounded=1;whiteSpace=wrap;html=1;strokeColor=#666666;fillColor=#f5f5f5;fontColor=#333333;" parent="1" vertex="1">
          <mxGeometry x="1052" y="560" width="10" height="80" as="geometry" />
        </mxCell>
        <mxCell id="PBCcbIg4CaZadZTyqdUz-90" value="" style="rounded=1;whiteSpace=wrap;html=1;strokeColor=#666666;fillColor=#f5f5f5;fontColor=#333333;" parent="1" vertex="1">
          <mxGeometry x="1092" y="560" width="10" height="80" as="geometry" />
        </mxCell>
        <mxCell id="PBCcbIg4CaZadZTyqdUz-91" value="" style="rounded=1;whiteSpace=wrap;html=1;strokeColor=#666666;fillColor=#f5f5f5;fontColor=#333333;" parent="1" vertex="1">
          <mxGeometry x="972" y="560" width="10" height="80" as="geometry" />
        </mxCell>
        <mxCell id="PBCcbIg4CaZadZTyqdUz-92" value="" style="rounded=1;whiteSpace=wrap;html=1;strokeColor=#666666;fillColor=#f5f5f5;fontColor=#333333;" parent="1" vertex="1">
          <mxGeometry x="933" y="560" width="10" height="80" as="geometry" />
        </mxCell>
        <mxCell id="PBCcbIg4CaZadZTyqdUz-93" value="" style="rounded=1;whiteSpace=wrap;html=1;strokeColor=#666666;fillColor=#f5f5f5;fontColor=#333333;" parent="1" vertex="1">
          <mxGeometry x="892" y="560" width="10" height="80" as="geometry" />
        </mxCell>
        <mxCell id="PBCcbIg4CaZadZTyqdUz-94" value="" style="rounded=1;whiteSpace=wrap;html=1;strokeColor=#666666;fillColor=#f5f5f5;fontColor=#333333;" parent="1" vertex="1">
          <mxGeometry x="853" y="560" width="10" height="80" as="geometry" />
        </mxCell>
        <mxCell id="PBCcbIg4CaZadZTyqdUz-95" value="" style="rounded=1;whiteSpace=wrap;html=1;strokeColor=#666666;fillColor=#f5f5f5;fontColor=#333333;" parent="1" vertex="1">
          <mxGeometry x="812" y="560" width="10" height="80" as="geometry" />
        </mxCell>
        <mxCell id="PBCcbIg4CaZadZTyqdUz-96" value="" style="rounded=1;whiteSpace=wrap;html=1;strokeColor=#d79b00;fillColor=#ffe6cc;" parent="1" vertex="1">
          <mxGeometry x="773" y="560" width="10" height="80" as="geometry" />
        </mxCell>
        <mxCell id="PBCcbIg4CaZadZTyqdUz-97" value="Qlik Report&lt;br&gt;(Execution &amp;lt; 1 minute)" style="text;html=1;align=right;verticalAlign=middle;resizable=0;points=[];autosize=1;strokeColor=none;fillColor=none;" parent="1" vertex="1">
          <mxGeometry x="20" y="710" width="140" height="30" as="geometry" />
        </mxCell>
        <mxCell id="PBCcbIg4CaZadZTyqdUz-98" value="" style="rounded=1;whiteSpace=wrap;html=1;strokeColor=#666666;fillColor=#f5f5f5;fontColor=#333333;" parent="1" vertex="1">
          <mxGeometry x="657" y="680" width="10" height="80" as="geometry" />
        </mxCell>
        <mxCell id="PBCcbIg4CaZadZTyqdUz-99" value="" style="rounded=1;whiteSpace=wrap;html=1;strokeColor=#d6b656;fillColor=#fff2cc;" parent="1" vertex="1">
          <mxGeometry x="697" y="680" width="10" height="80" as="geometry" />
        </mxCell>
        <mxCell id="PBCcbIg4CaZadZTyqdUz-100" value="" style="rounded=1;whiteSpace=wrap;html=1;strokeColor=#666666;fillColor=#f5f5f5;fontColor=#333333;" parent="1" vertex="1">
          <mxGeometry x="737" y="680" width="10" height="80" as="geometry" />
        </mxCell>
        <mxCell id="PBCcbIg4CaZadZTyqdUz-101" value="" style="rounded=1;whiteSpace=wrap;html=1;strokeColor=#d6b656;fillColor=#fff2cc;" parent="1" vertex="1">
          <mxGeometry x="617" y="680" width="10" height="80" as="geometry" />
        </mxCell>
        <mxCell id="PBCcbIg4CaZadZTyqdUz-102" value="" style="rounded=1;whiteSpace=wrap;html=1;strokeColor=#666666;fillColor=#f5f5f5;fontColor=#333333;" parent="1" vertex="1">
          <mxGeometry x="578" y="680" width="10" height="80" as="geometry" />
        </mxCell>
        <mxCell id="PBCcbIg4CaZadZTyqdUz-103" value="" style="rounded=1;whiteSpace=wrap;html=1;strokeColor=#666666;fillColor=#f5f5f5;fontColor=#333333;" parent="1" vertex="1">
          <mxGeometry x="457" y="680" width="10" height="80" as="geometry" />
        </mxCell>
        <mxCell id="PBCcbIg4CaZadZTyqdUz-104" value="" style="rounded=1;whiteSpace=wrap;html=1;strokeColor=#d6b656;fillColor=#fff2cc;" parent="1" vertex="1">
          <mxGeometry x="497" y="680" width="10" height="80" as="geometry" />
        </mxCell>
        <mxCell id="PBCcbIg4CaZadZTyqdUz-105" value="" style="rounded=1;whiteSpace=wrap;html=1;strokeColor=#666666;fillColor=#f5f5f5;fontColor=#333333;" parent="1" vertex="1">
          <mxGeometry x="537" y="680" width="10" height="80" as="geometry" />
        </mxCell>
        <mxCell id="PBCcbIg4CaZadZTyqdUz-106" value="" style="rounded=1;whiteSpace=wrap;html=1;strokeColor=#666666;fillColor=#f5f5f5;fontColor=#333333;" parent="1" vertex="1">
          <mxGeometry x="417" y="680" width="10" height="80" as="geometry" />
        </mxCell>
        <mxCell id="PBCcbIg4CaZadZTyqdUz-107" value="" style="rounded=1;whiteSpace=wrap;html=1;strokeColor=#666666;fillColor=#f5f5f5;fontColor=#333333;" parent="1" vertex="1">
          <mxGeometry x="378" y="680" width="10" height="80" as="geometry" />
        </mxCell>
        <mxCell id="PBCcbIg4CaZadZTyqdUz-108" value="" style="rounded=1;whiteSpace=wrap;html=1;strokeColor=#666666;fillColor=#f5f5f5;fontColor=#333333;" parent="1" vertex="1">
          <mxGeometry x="337" y="680" width="10" height="80" as="geometry" />
        </mxCell>
        <mxCell id="PBCcbIg4CaZadZTyqdUz-109" value="" style="rounded=1;whiteSpace=wrap;html=1;strokeColor=#666666;fillColor=#f5f5f5;fontColor=#333333;" parent="1" vertex="1">
          <mxGeometry x="298" y="680" width="10" height="80" as="geometry" />
        </mxCell>
        <mxCell id="PBCcbIg4CaZadZTyqdUz-110" value="" style="rounded=1;whiteSpace=wrap;html=1;strokeColor=#666666;fillColor=#f5f5f5;fontColor=#333333;" parent="1" vertex="1">
          <mxGeometry x="257" y="680" width="10" height="80" as="geometry" />
        </mxCell>
        <mxCell id="PBCcbIg4CaZadZTyqdUz-111" value="" style="rounded=1;whiteSpace=wrap;html=1;strokeColor=#666666;fillColor=#f5f5f5;fontColor=#333333;" parent="1" vertex="1">
          <mxGeometry x="218" y="680" width="10" height="80" as="geometry" />
        </mxCell>
        <mxCell id="PBCcbIg4CaZadZTyqdUz-112" value="" style="rounded=1;whiteSpace=wrap;html=1;strokeColor=#666666;fillColor=#f5f5f5;fontColor=#333333;" parent="1" vertex="1">
          <mxGeometry x="1137" y="680" width="10" height="80" as="geometry" />
        </mxCell>
        <mxCell id="PBCcbIg4CaZadZTyqdUz-113" value="" style="rounded=1;whiteSpace=wrap;html=1;strokeColor=#666666;fillColor=#f5f5f5;fontColor=#333333;" parent="1" vertex="1">
          <mxGeometry x="1016" y="680" width="10" height="80" as="geometry" />
        </mxCell>
        <mxCell id="PBCcbIg4CaZadZTyqdUz-114" value="" style="rounded=1;whiteSpace=wrap;html=1;strokeColor=#666666;fillColor=#f5f5f5;fontColor=#333333;" parent="1" vertex="1">
          <mxGeometry x="1056" y="680" width="10" height="80" as="geometry" />
        </mxCell>
        <mxCell id="PBCcbIg4CaZadZTyqdUz-115" value="" style="rounded=1;whiteSpace=wrap;html=1;strokeColor=#666666;fillColor=#f5f5f5;fontColor=#333333;" parent="1" vertex="1">
          <mxGeometry x="1096" y="680" width="10" height="80" as="geometry" />
        </mxCell>
        <mxCell id="PBCcbIg4CaZadZTyqdUz-116" value="" style="rounded=1;whiteSpace=wrap;html=1;strokeColor=#666666;fillColor=#f5f5f5;fontColor=#333333;" parent="1" vertex="1">
          <mxGeometry x="976" y="680" width="10" height="80" as="geometry" />
        </mxCell>
        <mxCell id="PBCcbIg4CaZadZTyqdUz-117" value="" style="rounded=1;whiteSpace=wrap;html=1;strokeColor=#666666;fillColor=#f5f5f5;fontColor=#333333;" parent="1" vertex="1">
          <mxGeometry x="937" y="680" width="10" height="80" as="geometry" />
        </mxCell>
        <mxCell id="PBCcbIg4CaZadZTyqdUz-118" value="" style="rounded=1;whiteSpace=wrap;html=1;strokeColor=#666666;fillColor=#f5f5f5;fontColor=#333333;" parent="1" vertex="1">
          <mxGeometry x="896" y="680" width="10" height="80" as="geometry" />
        </mxCell>
        <mxCell id="PBCcbIg4CaZadZTyqdUz-119" value="" style="rounded=1;whiteSpace=wrap;html=1;strokeColor=#666666;fillColor=#f5f5f5;fontColor=#333333;" parent="1" vertex="1">
          <mxGeometry x="857" y="680" width="10" height="80" as="geometry" />
        </mxCell>
        <mxCell id="PBCcbIg4CaZadZTyqdUz-120" value="" style="rounded=1;whiteSpace=wrap;html=1;strokeColor=#666666;fillColor=#f5f5f5;fontColor=#333333;" parent="1" vertex="1">
          <mxGeometry x="816" y="680" width="10" height="80" as="geometry" />
        </mxCell>
        <mxCell id="PBCcbIg4CaZadZTyqdUz-121" value="" style="rounded=1;whiteSpace=wrap;html=1;strokeColor=#d6b656;fillColor=#fff2cc;" parent="1" vertex="1">
          <mxGeometry x="777" y="680" width="10" height="80" as="geometry" />
        </mxCell>
        <mxCell id="PBCcbIg4CaZadZTyqdUz-122" value="Execute every 15 minutes&lt;br&gt;Between 2 am - 7 pm&lt;br&gt;SUN&amp;gt;FRI" style="text;html=1;align=left;verticalAlign=middle;resizable=0;points=[];autosize=1;strokeColor=none;fillColor=none;" parent="1" vertex="1">
          <mxGeometry x="1200" y="215" width="150" height="50" as="geometry" />
        </mxCell>
        <mxCell id="PBCcbIg4CaZadZTyqdUz-124" value="Everyday, once each 4 hours&lt;br&gt;30 minutes past the hour" style="text;html=1;align=left;verticalAlign=middle;resizable=0;points=[];autosize=1;strokeColor=none;fillColor=none;" parent="1" vertex="1">
          <mxGeometry x="1200" y="465" width="170" height="30" as="geometry" />
        </mxCell>
        <mxCell id="PBCcbIg4CaZadZTyqdUz-130" value="Data load script execution:&lt;br&gt;@ 9:15, 12:15, 15:15" style="text;html=1;align=left;verticalAlign=middle;resizable=0;points=[];autosize=1;strokeColor=none;fillColor=none;" parent="1" vertex="1">
          <mxGeometry x="1200" y="850" width="160" height="30" as="geometry" />
        </mxCell>
        <mxCell id="PBCcbIg4CaZadZTyqdUz-129" value="" style="shape=offPageConnector;whiteSpace=wrap;html=1;strokeColor=#82b366;fillColor=#d5e8d4;align=center;verticalAlign=top;rotation=-180;labelPosition=center;verticalLabelPosition=bottom;" parent="1" vertex="1">
          <mxGeometry x="565" y="835" width="10" height="45" as="geometry" />
        </mxCell>
        <mxCell id="PBCcbIg4CaZadZTyqdUz-133" value="9:15AM" style="text;html=1;align=left;verticalAlign=middle;resizable=0;points=[];autosize=1;strokeColor=#82b366;fillColor=#d5e8d4;" parent="1" vertex="1">
          <mxGeometry x="575" y="860" width="60" height="20" as="geometry" />
        </mxCell>
        <mxCell id="PBCcbIg4CaZadZTyqdUz-140" value="" style="shape=offPageConnector;whiteSpace=wrap;html=1;strokeColor=#82b366;fillColor=#d5e8d4;align=center;verticalAlign=top;rotation=-180;labelPosition=center;verticalLabelPosition=bottom;" parent="1" vertex="1">
          <mxGeometry x="685" y="835" width="10" height="45" as="geometry" />
        </mxCell>
        <mxCell id="PBCcbIg4CaZadZTyqdUz-141" value="12:15PM" style="text;html=1;align=left;verticalAlign=middle;resizable=0;points=[];autosize=1;strokeColor=#82b366;fillColor=#d5e8d4;" parent="1" vertex="1">
          <mxGeometry x="695" y="860" width="60" height="20" as="geometry" />
        </mxCell>
        <mxCell id="sqERC49b5_r3pEMh_2ns-9" value="|&lt;br&gt;7" style="text;html=1;align=center;verticalAlign=middle;resizable=0;points=[];autosize=1;strokeColor=none;fillColor=none;" parent="1" vertex="1">
          <mxGeometry x="469" y="797" width="20" height="30" as="geometry" />
        </mxCell>
        <mxCell id="sqERC49b5_r3pEMh_2ns-10" value="|&lt;br&gt;8" style="text;html=1;align=center;verticalAlign=middle;resizable=0;points=[];autosize=1;strokeColor=none;fillColor=none;" parent="1" vertex="1">
          <mxGeometry x="510" y="797" width="20" height="30" as="geometry" />
        </mxCell>
        <mxCell id="sqERC49b5_r3pEMh_2ns-11" value="|&lt;br&gt;10" style="text;html=1;align=center;verticalAlign=middle;resizable=0;points=[];autosize=1;strokeColor=none;fillColor=none;" parent="1" vertex="1">
          <mxGeometry x="584" y="797" width="30" height="30" as="geometry" />
        </mxCell>
        <mxCell id="sqERC49b5_r3pEMh_2ns-12" value="|&lt;br&gt;11" style="text;html=1;align=center;verticalAlign=middle;resizable=0;points=[];autosize=1;strokeColor=none;fillColor=none;" parent="1" vertex="1">
          <mxGeometry x="624" y="797" width="30" height="30" as="geometry" />
        </mxCell>
        <mxCell id="sqERC49b5_r3pEMh_2ns-14" value="|&lt;br&gt;9" style="text;html=1;align=center;verticalAlign=middle;resizable=0;points=[];autosize=1;strokeColor=none;fillColor=none;" parent="1" vertex="1">
          <mxGeometry x="549" y="797" width="20" height="30" as="geometry" />
        </mxCell>
        <mxCell id="sqERC49b5_r3pEMh_2ns-15" value="|&lt;br&gt;13" style="text;html=1;align=center;verticalAlign=middle;resizable=0;points=[];autosize=1;strokeColor=none;fillColor=none;" parent="1" vertex="1">
          <mxGeometry x="704" y="797" width="30" height="30" as="geometry" />
        </mxCell>
        <mxCell id="sqERC49b5_r3pEMh_2ns-16" value="|&lt;br&gt;14" style="text;html=1;align=center;verticalAlign=middle;resizable=0;points=[];autosize=1;strokeColor=none;fillColor=none;" parent="1" vertex="1">
          <mxGeometry x="745" y="797" width="30" height="30" as="geometry" />
        </mxCell>
        <mxCell id="sqERC49b5_r3pEMh_2ns-17" value="|&lt;br&gt;16" style="text;html=1;align=center;verticalAlign=middle;resizable=0;points=[];autosize=1;strokeColor=none;fillColor=none;" parent="1" vertex="1">
          <mxGeometry x="824" y="797" width="30" height="30" as="geometry" />
        </mxCell>
        <mxCell id="sqERC49b5_r3pEMh_2ns-18" value="|&lt;br&gt;17" style="text;html=1;align=center;verticalAlign=middle;resizable=0;points=[];autosize=1;strokeColor=none;fillColor=none;" parent="1" vertex="1">
          <mxGeometry x="864" y="797" width="30" height="30" as="geometry" />
        </mxCell>
        <mxCell id="sqERC49b5_r3pEMh_2ns-19" value="|&lt;br&gt;15" style="text;html=1;align=center;verticalAlign=middle;resizable=0;points=[];autosize=1;strokeColor=none;fillColor=none;" parent="1" vertex="1">
          <mxGeometry x="784" y="797" width="30" height="30" as="geometry" />
        </mxCell>
        <mxCell id="sqERC49b5_r3pEMh_2ns-20" value="" style="endArrow=none;dashed=1;html=1;shadow=0;strokeColor=#A8A8A8;exitX=0.494;exitY=-0.133;exitDx=0;exitDy=0;exitPerimeter=0;" parent="1" edge="1">
          <mxGeometry width="50" height="50" relative="1" as="geometry">
            <mxPoint x="478.83000000000004" y="799.5" as="sourcePoint" />
            <mxPoint x="479.13" y="160.49" as="targetPoint" />
          </mxGeometry>
        </mxCell>
        <mxCell id="sqERC49b5_r3pEMh_2ns-21" value="" style="endArrow=none;dashed=1;html=1;shadow=0;strokeColor=#A8A8A8;exitX=0.494;exitY=-0.133;exitDx=0;exitDy=0;exitPerimeter=0;" parent="1" edge="1">
          <mxGeometry width="50" height="50" relative="1" as="geometry">
            <mxPoint x="598.8299999999999" y="799.5" as="sourcePoint" />
            <mxPoint x="599.1300000000001" y="160.49" as="targetPoint" />
          </mxGeometry>
        </mxCell>
        <mxCell id="sqERC49b5_r3pEMh_2ns-22" value="" style="endArrow=none;dashed=1;html=1;shadow=0;strokeColor=#A8A8A8;exitX=0.494;exitY=-0.133;exitDx=0;exitDy=0;exitPerimeter=0;" parent="1" edge="1">
          <mxGeometry width="50" height="50" relative="1" as="geometry">
            <mxPoint x="759.8299999999999" y="799.5" as="sourcePoint" />
            <mxPoint x="760.1300000000001" y="160.49" as="targetPoint" />
          </mxGeometry>
        </mxCell>
        <mxCell id="CG-IMWXqk5XJ5ieiMFN6-1" value="" style="shape=link;html=1;" parent="1" edge="1">
          <mxGeometry width="100" relative="1" as="geometry">
            <mxPoint x="459" y="180" as="sourcePoint" />
            <mxPoint x="960" y="180" as="targetPoint" />
          </mxGeometry>
        </mxCell>
        <mxCell id="puX8Xnae-c29i39RkgdX-1" value="" style="rounded=1;whiteSpace=wrap;html=1;strokeColor=#666666;fillColor=#f5f5f5;fontColor=#333333;" parent="1" vertex="1">
          <mxGeometry x="490" y="200" width="10" height="80" as="geometry" />
        </mxCell>
        <mxCell id="puX8Xnae-c29i39RkgdX-2" value="" style="rounded=1;whiteSpace=wrap;html=1;strokeColor=#666666;fillColor=#f5f5f5;fontColor=#333333;" parent="1" vertex="1">
          <mxGeometry x="500" y="200" width="10" height="80" as="geometry" />
        </mxCell>
        <mxCell id="puX8Xnae-c29i39RkgdX-3" value="" style="rounded=1;whiteSpace=wrap;html=1;strokeColor=#666666;fillColor=#f5f5f5;fontColor=#333333;" parent="1" vertex="1">
          <mxGeometry x="510" y="200" width="10" height="80" as="geometry" />
        </mxCell>
        <mxCell id="puX8Xnae-c29i39RkgdX-4" value="" style="rounded=1;whiteSpace=wrap;html=1;strokeColor=#666666;fillColor=#f5f5f5;fontColor=#333333;" parent="1" vertex="1">
          <mxGeometry x="530" y="200" width="10" height="80" as="geometry" />
        </mxCell>
        <mxCell id="puX8Xnae-c29i39RkgdX-5" value="" style="rounded=1;whiteSpace=wrap;html=1;strokeColor=#666666;fillColor=#f5f5f5;fontColor=#333333;" parent="1" vertex="1">
          <mxGeometry x="540" y="200" width="10" height="80" as="geometry" />
        </mxCell>
        <mxCell id="puX8Xnae-c29i39RkgdX-6" value="" style="rounded=1;whiteSpace=wrap;html=1;strokeColor=#666666;fillColor=#f5f5f5;fontColor=#333333;" parent="1" vertex="1">
          <mxGeometry x="550" y="200" width="10" height="80" as="geometry" />
        </mxCell>
        <mxCell id="puX8Xnae-c29i39RkgdX-7" value="" style="rounded=1;whiteSpace=wrap;html=1;strokeColor=#666666;fillColor=#f5f5f5;fontColor=#333333;" parent="1" vertex="1">
          <mxGeometry x="570" y="200" width="10" height="80" as="geometry" />
        </mxCell>
        <mxCell id="puX8Xnae-c29i39RkgdX-8" value="" style="rounded=1;whiteSpace=wrap;html=1;strokeColor=#666666;fillColor=#f5f5f5;fontColor=#333333;" parent="1" vertex="1">
          <mxGeometry x="580" y="200" width="10" height="80" as="geometry" />
        </mxCell>
        <mxCell id="puX8Xnae-c29i39RkgdX-9" value="" style="rounded=1;whiteSpace=wrap;html=1;strokeColor=#666666;fillColor=#f5f5f5;fontColor=#333333;" parent="1" vertex="1">
          <mxGeometry x="590" y="200" width="10" height="80" as="geometry" />
        </mxCell>
        <mxCell id="puX8Xnae-c29i39RkgdX-10" value="" style="rounded=1;whiteSpace=wrap;html=1;strokeColor=#666666;fillColor=#f5f5f5;fontColor=#333333;" parent="1" vertex="1">
          <mxGeometry x="610" y="200" width="10" height="80" as="geometry" />
        </mxCell>
        <mxCell id="puX8Xnae-c29i39RkgdX-11" value="" style="rounded=1;whiteSpace=wrap;html=1;strokeColor=#666666;fillColor=#f5f5f5;fontColor=#333333;" parent="1" vertex="1">
          <mxGeometry x="620" y="200" width="10" height="80" as="geometry" />
        </mxCell>
        <mxCell id="puX8Xnae-c29i39RkgdX-12" value="" style="rounded=1;whiteSpace=wrap;html=1;strokeColor=#666666;fillColor=#f5f5f5;fontColor=#333333;" parent="1" vertex="1">
          <mxGeometry x="630" y="200" width="10" height="80" as="geometry" />
        </mxCell>
        <mxCell id="puX8Xnae-c29i39RkgdX-13" value="" style="rounded=1;whiteSpace=wrap;html=1;strokeColor=#666666;fillColor=#f5f5f5;fontColor=#333333;" parent="1" vertex="1">
          <mxGeometry x="650" y="200" width="10" height="80" as="geometry" />
        </mxCell>
        <mxCell id="puX8Xnae-c29i39RkgdX-14" value="" style="rounded=1;whiteSpace=wrap;html=1;strokeColor=#666666;fillColor=#f5f5f5;fontColor=#333333;" parent="1" vertex="1">
          <mxGeometry x="660" y="200" width="10" height="80" as="geometry" />
        </mxCell>
        <mxCell id="puX8Xnae-c29i39RkgdX-15" value="" style="rounded=1;whiteSpace=wrap;html=1;strokeColor=#666666;fillColor=#f5f5f5;fontColor=#333333;" parent="1" vertex="1">
          <mxGeometry x="670" y="200" width="10" height="80" as="geometry" />
        </mxCell>
        <mxCell id="puX8Xnae-c29i39RkgdX-16" value="" style="rounded=1;whiteSpace=wrap;html=1;strokeColor=#666666;fillColor=#f5f5f5;fontColor=#333333;" parent="1" vertex="1">
          <mxGeometry x="690" y="200" width="10" height="80" as="geometry" />
        </mxCell>
        <mxCell id="puX8Xnae-c29i39RkgdX-17" value="" style="rounded=1;whiteSpace=wrap;html=1;strokeColor=#666666;fillColor=#f5f5f5;fontColor=#333333;" parent="1" vertex="1">
          <mxGeometry x="700" y="200" width="10" height="80" as="geometry" />
        </mxCell>
        <mxCell id="puX8Xnae-c29i39RkgdX-18" value="" style="rounded=1;whiteSpace=wrap;html=1;strokeColor=#666666;fillColor=#f5f5f5;fontColor=#333333;" parent="1" vertex="1">
          <mxGeometry x="710" y="200" width="10" height="80" as="geometry" />
        </mxCell>
        <mxCell id="puX8Xnae-c29i39RkgdX-19" value="" style="rounded=1;whiteSpace=wrap;html=1;strokeColor=#666666;fillColor=#f5f5f5;fontColor=#333333;" parent="1" vertex="1">
          <mxGeometry x="730" y="200" width="10" height="80" as="geometry" />
        </mxCell>
        <mxCell id="puX8Xnae-c29i39RkgdX-20" value="" style="rounded=1;whiteSpace=wrap;html=1;strokeColor=#666666;fillColor=#f5f5f5;fontColor=#333333;" parent="1" vertex="1">
          <mxGeometry x="740" y="200" width="10" height="80" as="geometry" />
        </mxCell>
        <mxCell id="puX8Xnae-c29i39RkgdX-21" value="" style="rounded=1;whiteSpace=wrap;html=1;strokeColor=#666666;fillColor=#f5f5f5;fontColor=#333333;" parent="1" vertex="1">
          <mxGeometry x="750" y="200" width="10" height="80" as="geometry" />
        </mxCell>
        <mxCell id="puX8Xnae-c29i39RkgdX-22" value="" style="rounded=1;whiteSpace=wrap;html=1;strokeColor=#666666;fillColor=#f5f5f5;fontColor=#333333;" parent="1" vertex="1">
          <mxGeometry x="770" y="200" width="10" height="80" as="geometry" />
        </mxCell>
        <mxCell id="puX8Xnae-c29i39RkgdX-23" value="" style="rounded=1;whiteSpace=wrap;html=1;strokeColor=#666666;fillColor=#f5f5f5;fontColor=#333333;" parent="1" vertex="1">
          <mxGeometry x="780" y="200" width="10" height="80" as="geometry" />
        </mxCell>
        <mxCell id="puX8Xnae-c29i39RkgdX-24" value="" style="rounded=1;whiteSpace=wrap;html=1;strokeColor=#666666;fillColor=#f5f5f5;fontColor=#333333;" parent="1" vertex="1">
          <mxGeometry x="790" y="200" width="10" height="80" as="geometry" />
        </mxCell>
        <mxCell id="puX8Xnae-c29i39RkgdX-25" value="" style="rounded=1;whiteSpace=wrap;html=1;strokeColor=#666666;fillColor=#f5f5f5;fontColor=#333333;" parent="1" vertex="1">
          <mxGeometry x="810" y="200" width="10" height="80" as="geometry" />
        </mxCell>
        <mxCell id="puX8Xnae-c29i39RkgdX-26" value="" style="rounded=1;whiteSpace=wrap;html=1;strokeColor=#666666;fillColor=#f5f5f5;fontColor=#333333;" parent="1" vertex="1">
          <mxGeometry x="820" y="200" width="10" height="80" as="geometry" />
        </mxCell>
        <mxCell id="puX8Xnae-c29i39RkgdX-27" value="" style="rounded=1;whiteSpace=wrap;html=1;strokeColor=#666666;fillColor=#f5f5f5;fontColor=#333333;" parent="1" vertex="1">
          <mxGeometry x="830" y="200" width="10" height="80" as="geometry" />
        </mxCell>
        <mxCell id="puX8Xnae-c29i39RkgdX-28" value="" style="rounded=1;whiteSpace=wrap;html=1;strokeColor=#666666;fillColor=#f5f5f5;fontColor=#333333;" parent="1" vertex="1">
          <mxGeometry x="850" y="200" width="10" height="80" as="geometry" />
        </mxCell>
        <mxCell id="puX8Xnae-c29i39RkgdX-29" value="" style="rounded=1;whiteSpace=wrap;html=1;strokeColor=#666666;fillColor=#f5f5f5;fontColor=#333333;" parent="1" vertex="1">
          <mxGeometry x="860" y="200" width="10" height="80" as="geometry" />
        </mxCell>
        <mxCell id="puX8Xnae-c29i39RkgdX-30" value="" style="rounded=1;whiteSpace=wrap;html=1;strokeColor=#666666;fillColor=#f5f5f5;fontColor=#333333;" parent="1" vertex="1">
          <mxGeometry x="870" y="200" width="10" height="80" as="geometry" />
        </mxCell>
        <mxCell id="puX8Xnae-c29i39RkgdX-32" value="|&lt;br&gt;19" style="text;html=1;align=center;verticalAlign=middle;resizable=0;points=[];autosize=1;strokeColor=none;fillColor=none;" parent="1" vertex="1">
          <mxGeometry x="945" y="797" width="30" height="30" as="geometry" />
        </mxCell>
        <mxCell id="xSBvtm8I-CXWW7NNN49b-2" value="" style="shape=offPageConnector;whiteSpace=wrap;html=1;strokeColor=#82b366;fillColor=#d5e8d4;align=center;verticalAlign=top;rotation=-180;labelPosition=center;verticalLabelPosition=bottom;" vertex="1" parent="1">
          <mxGeometry x="804" y="835" width="10" height="45" as="geometry" />
        </mxCell>
        <mxCell id="xSBvtm8I-CXWW7NNN49b-3" value="15:15PM" style="text;html=1;align=left;verticalAlign=middle;resizable=0;points=[];autosize=1;strokeColor=#82b366;fillColor=#d5e8d4;" vertex="1" parent="1">
          <mxGeometry x="814" y="860" width="60" height="20" as="geometry" />
        </mxCell>
        <mxCell id="xSBvtm8I-CXWW7NNN49b-5" value="Everyday, once each 4 hours&lt;br&gt;35 minutes past the hour" style="text;html=1;align=left;verticalAlign=middle;resizable=0;points=[];autosize=1;strokeColor=none;fillColor=none;" vertex="1" parent="1">
          <mxGeometry x="1200" y="585" width="170" height="30" as="geometry" />
        </mxCell>
        <mxCell id="xSBvtm8I-CXWW7NNN49b-6" value="Everyday, once each 4 hours&lt;br&gt;40 minutes past the hour" style="text;html=1;align=left;verticalAlign=middle;resizable=0;points=[];autosize=1;strokeColor=none;fillColor=none;" vertex="1" parent="1">
          <mxGeometry x="1200" y="705" width="170" height="30" as="geometry" />
        </mxCell>
        <mxCell id="xSBvtm8I-CXWW7NNN49b-13" value="" style="rounded=1;whiteSpace=wrap;html=1;strokeColor=#666666;fillColor=#f5f5f5;fontColor=#333333;" vertex="1" parent="1">
          <mxGeometry x="310" y="200" width="10" height="80" as="geometry" />
        </mxCell>
        <mxCell id="xSBvtm8I-CXWW7NNN49b-14" value="" style="rounded=1;whiteSpace=wrap;html=1;strokeColor=#6c8ebf;fillColor=#dae8fc;" vertex="1" parent="1">
          <mxGeometry x="350" y="200" width="10" height="80" as="geometry" />
        </mxCell>
        <mxCell id="xSBvtm8I-CXWW7NNN49b-15" value="" style="rounded=1;whiteSpace=wrap;html=1;strokeColor=#666666;fillColor=#f5f5f5;fontColor=#333333;" vertex="1" parent="1">
          <mxGeometry x="390" y="200" width="10" height="80" as="geometry" />
        </mxCell>
        <mxCell id="xSBvtm8I-CXWW7NNN49b-16" value="" style="rounded=1;whiteSpace=wrap;html=1;strokeColor=#666666;fillColor=#f5f5f5;fontColor=#333333;" vertex="1" parent="1">
          <mxGeometry x="430" y="200" width="10" height="80" as="geometry" />
        </mxCell>
        <mxCell id="xSBvtm8I-CXWW7NNN49b-17" value="" style="rounded=1;whiteSpace=wrap;html=1;strokeColor=#666666;fillColor=#f5f5f5;fontColor=#333333;" vertex="1" parent="1">
          <mxGeometry x="470" y="200" width="10" height="80" as="geometry" />
        </mxCell>
        <mxCell id="xSBvtm8I-CXWW7NNN49b-33" value="" style="rounded=1;whiteSpace=wrap;html=1;strokeColor=#666666;fillColor=#f5f5f5;fontColor=#333333;" vertex="1" parent="1">
          <mxGeometry x="280" y="200" width="10" height="80" as="geometry" />
        </mxCell>
        <mxCell id="xSBvtm8I-CXWW7NNN49b-34" value="" style="rounded=1;whiteSpace=wrap;html=1;strokeColor=#666666;fillColor=#f5f5f5;fontColor=#333333;" vertex="1" parent="1">
          <mxGeometry x="290" y="200" width="10" height="80" as="geometry" />
        </mxCell>
        <mxCell id="xSBvtm8I-CXWW7NNN49b-35" value="" style="rounded=1;whiteSpace=wrap;html=1;strokeColor=#666666;fillColor=#f5f5f5;fontColor=#333333;" vertex="1" parent="1">
          <mxGeometry x="300" y="200" width="10" height="80" as="geometry" />
        </mxCell>
        <mxCell id="xSBvtm8I-CXWW7NNN49b-36" value="" style="rounded=1;whiteSpace=wrap;html=1;strokeColor=#666666;fillColor=#f5f5f5;fontColor=#333333;" vertex="1" parent="1">
          <mxGeometry x="320" y="200" width="10" height="80" as="geometry" />
        </mxCell>
        <mxCell id="xSBvtm8I-CXWW7NNN49b-37" value="" style="rounded=1;whiteSpace=wrap;html=1;strokeColor=#666666;fillColor=#f5f5f5;fontColor=#333333;" vertex="1" parent="1">
          <mxGeometry x="330" y="200" width="10" height="80" as="geometry" />
        </mxCell>
        <mxCell id="xSBvtm8I-CXWW7NNN49b-38" value="" style="rounded=1;whiteSpace=wrap;html=1;strokeColor=#666666;fillColor=#f5f5f5;fontColor=#333333;" vertex="1" parent="1">
          <mxGeometry x="340" y="200" width="10" height="80" as="geometry" />
        </mxCell>
        <mxCell id="xSBvtm8I-CXWW7NNN49b-39" value="" style="rounded=1;whiteSpace=wrap;html=1;strokeColor=#666666;fillColor=#f5f5f5;fontColor=#333333;" vertex="1" parent="1">
          <mxGeometry x="360" y="200" width="10" height="80" as="geometry" />
        </mxCell>
        <mxCell id="xSBvtm8I-CXWW7NNN49b-40" value="" style="rounded=1;whiteSpace=wrap;html=1;strokeColor=#666666;fillColor=#f5f5f5;fontColor=#333333;" vertex="1" parent="1">
          <mxGeometry x="370" y="200" width="10" height="80" as="geometry" />
        </mxCell>
        <mxCell id="xSBvtm8I-CXWW7NNN49b-41" value="" style="rounded=1;whiteSpace=wrap;html=1;strokeColor=#666666;fillColor=#f5f5f5;fontColor=#333333;" vertex="1" parent="1">
          <mxGeometry x="380" y="200" width="10" height="80" as="geometry" />
        </mxCell>
        <mxCell id="xSBvtm8I-CXWW7NNN49b-42" value="" style="rounded=1;whiteSpace=wrap;html=1;strokeColor=#666666;fillColor=#f5f5f5;fontColor=#333333;" vertex="1" parent="1">
          <mxGeometry x="400" y="200" width="10" height="80" as="geometry" />
        </mxCell>
        <mxCell id="xSBvtm8I-CXWW7NNN49b-43" value="" style="rounded=1;whiteSpace=wrap;html=1;strokeColor=#666666;fillColor=#f5f5f5;fontColor=#333333;" vertex="1" parent="1">
          <mxGeometry x="410" y="200" width="10" height="80" as="geometry" />
        </mxCell>
        <mxCell id="xSBvtm8I-CXWW7NNN49b-44" value="" style="rounded=1;whiteSpace=wrap;html=1;strokeColor=#666666;fillColor=#f5f5f5;fontColor=#333333;" vertex="1" parent="1">
          <mxGeometry x="420" y="200" width="10" height="80" as="geometry" />
        </mxCell>
        <mxCell id="xSBvtm8I-CXWW7NNN49b-45" value="" style="rounded=1;whiteSpace=wrap;html=1;strokeColor=#666666;fillColor=#f5f5f5;fontColor=#333333;" vertex="1" parent="1">
          <mxGeometry x="440" y="200" width="10" height="80" as="geometry" />
        </mxCell>
        <mxCell id="xSBvtm8I-CXWW7NNN49b-46" value="" style="rounded=1;whiteSpace=wrap;html=1;strokeColor=#666666;fillColor=#f5f5f5;fontColor=#333333;" vertex="1" parent="1">
          <mxGeometry x="450" y="200" width="10" height="80" as="geometry" />
        </mxCell>
        <mxCell id="xSBvtm8I-CXWW7NNN49b-47" value="" style="rounded=1;whiteSpace=wrap;html=1;strokeColor=#666666;fillColor=#f5f5f5;fontColor=#333333;" vertex="1" parent="1">
          <mxGeometry x="460" y="200" width="10" height="80" as="geometry" />
        </mxCell>
        <mxCell id="xSBvtm8I-CXWW7NNN49b-49" value="" style="rounded=1;whiteSpace=wrap;html=1;strokeColor=#666666;fillColor=#f5f5f5;fontColor=#333333;" vertex="1" parent="1">
          <mxGeometry x="900" y="200" width="10" height="80" as="geometry" />
        </mxCell>
        <mxCell id="xSBvtm8I-CXWW7NNN49b-50" value="" style="rounded=1;whiteSpace=wrap;html=1;strokeColor=#666666;fillColor=#f5f5f5;fontColor=#333333;" vertex="1" parent="1">
          <mxGeometry x="940" y="200" width="10" height="80" as="geometry" />
        </mxCell>
        <mxCell id="xSBvtm8I-CXWW7NNN49b-52" value="" style="rounded=1;whiteSpace=wrap;html=1;strokeColor=#666666;fillColor=#f5f5f5;fontColor=#333333;" vertex="1" parent="1">
          <mxGeometry x="890" y="200" width="10" height="80" as="geometry" />
        </mxCell>
        <mxCell id="xSBvtm8I-CXWW7NNN49b-53" value="" style="rounded=1;whiteSpace=wrap;html=1;strokeColor=#666666;fillColor=#f5f5f5;fontColor=#333333;" vertex="1" parent="1">
          <mxGeometry x="910" y="200" width="10" height="80" as="geometry" />
        </mxCell>
        <mxCell id="xSBvtm8I-CXWW7NNN49b-54" value="" style="rounded=1;whiteSpace=wrap;html=1;strokeColor=#666666;fillColor=#f5f5f5;fontColor=#333333;" vertex="1" parent="1">
          <mxGeometry x="920" y="200" width="10" height="80" as="geometry" />
        </mxCell>
        <mxCell id="xSBvtm8I-CXWW7NNN49b-55" value="" style="rounded=1;whiteSpace=wrap;html=1;strokeColor=#666666;fillColor=#f5f5f5;fontColor=#333333;" vertex="1" parent="1">
          <mxGeometry x="930" y="200" width="10" height="80" as="geometry" />
        </mxCell>
        <mxCell id="xSBvtm8I-CXWW7NNN49b-56" value="" style="rounded=1;whiteSpace=wrap;html=1;strokeColor=#666666;fillColor=#f5f5f5;fontColor=#333333;" vertex="1" parent="1">
          <mxGeometry x="950" y="200" width="10" height="80" as="geometry" />
        </mxCell>
      </root>
    </mxGraphModel>
  </diagram>
</mxfile>
